<svg id="Layer_1" data-name="Layer 1" xmlns="http://www.w3.org/2000/svg" viewBox="0 0 2318.89 801.66"><defs><style>.cls-1{fill:#3a3a3a;}</style></defs><title>lil_voters_logo</title><path class="cls-1" d="M88.53,91.51c3.47-.43,7.87-0.54,12-1.62,3.54-.92,2.73-3.08,6.18-4.41a13.22,13.22,0,0,1,5.92-1.16c6.5,0.74,11,2.33,17.27-1,0.64-.33,2.09-0.34,2.37.05,3.27,4.69,5.62,2.83,9.91,3.86,2.63,0.63,7-.14,8.56-2,3.67-4.35,7.64-1.93,11.43-1.79a111.62,111.62,0,0,1,13.48,1.57c2.46,0.39,9.26.72,11.17,2.09,8.47,6.1,8.8,15.17,11.72,24.74,1.9,6.23,4.15,13.18,3.12,19.28-1.68,10,.6,19.8.4,29.7-0.21,10.37-.08,20.74-0.3,31.11-0.18,8.4-.67,16.78-1,25.18-0.07,1.65-.1,3.31-0.06,5,0.35,12.52.68,25,1.11,37.56,0.18,5.24.78,10.46,0.86,15.7,0.06,3.45-.73,6.91-0.66,10.36,0.17,8.05.74,16.09,0.95,24.14,0.19,7.41-.27,14.86.24,22.25,0.57,8.18.36,16.28,0.82,24.47s-0.16,16.49-.1,24.73c0.08,10.75.41,21.49,0.57,32.23,0.06,4.1,0,8.2-.07,12.29-0.13,14.39-.47,28.79-0.34,43.18s0.82,28.5,1.1,42.76c0.2,10.24.18,20.48,0.14,30.72-0.06,15.26-.38,30.52-0.3,45.78,0.08,15,.64,30.06.78,45.1,0.15,16.85,0,33.7.12,50.54q0.4,39.84,1.1,79.67,0.21,12.68,1,25.35c0.11,1.67,1.57,3.28,2.5,4.86,0.54,0.92,1.48,1.64,1.87,2.6a9,9,0,0,0,11.8,4.78l13.85-6.48a2.15,2.15,0,0,1,.86-0.45,27.68,27.68,0,0,1,5.4,2.65c3.3,2.48,8.4,4.18,5,10.15-2.35,4.13-3.88,8.83-6.74,12.54-1.7,2.21-5.24,3-8,4.43-5.1,2.64-10.16,5.38-15.35,7.84a47.21,47.21,0,0,1-9.2,3.4,129,129,0,0,1-45.33,2.88,177.62,177.62,0,0,1-24.25-4.9c-11.6-3.07-20.08-10.57-26.11-20.73-8.77-14.77-14.07-30.58-14-48,0-6.53-1.13-13.07-1.81-19.6C98,739.13,95.91,733.13,97,727.75c1.53-7.57,0-14.75,0-22.1-0.06-8.76-.42-17.53-0.45-26.29,0-6.09.37-12.18,0.38-18.27,0-3.3-.54-6.61-0.56-9.91-0.13-23.81-.15-47.62-0.3-71.43,0-2.85-.79-5.68-0.87-8.54A20.88,20.88,0,0,1,96,566c0.17-.71,1.13-1.41,1-2-3.62-18-.55-36.06-0.85-54.08-0.11-6.44-1-12.87-1.17-19.31-0.22-8.6,0-17.21-.11-25.82-0.23-19.25.68-38.51,0.15-57.75C94.27,378,95.12,349,94.19,320c-0.79-24.89.6-49.79-.26-74.68-0.38-11.08-1.3-22.15-1.72-33.23-0.25-6.54.26-13.11,0-19.64-0.46-10.08-1.67-20.12-1.91-30.2-0.3-12.47.05-25,.12-37.44,0-5.26,2.26-10.13-2.11-14.68,0.86-7.9.86-7.9,0.12-12.1A11.6,11.6,0,0,1,88.53,91.51Z" transform="translate(-87.98 -38.28)"/><path class="cls-1" d="M520.43,602.56c1.32-.65,2.84-1.09,3.86-2.06,0.36-.34-0.24-2.61-0.88-2.89-1.34-.57-3-0.41-5-0.59l2.39-9.53-2.22-1.72,1.48-.33-2.54-14,9-1c-3.28-4.51-7.41-8.14-8.76-12.6-1.41-4.63-.13-10.08,0-15.83-3.57-2.86-.08-7.87-1.59-12.27l6.67-.88,0-1.37-6.39-1.05a1.91,1.91,0,0,1-.42-0.81c0.83-10.91,1.62-21.68,1.61-32.55,0-7.19-.06-14.39.18-21.57,0-1.52,1.27-3,2.21-5.08l4.75,5.39c1.89-3.89-.06-5.91-2.25-7.57-1.9-1.44-4.11-2.47-5.9-4.12,4.24,0.08,4.24.08,6.13-6l1.42,4.6v-33l-4.82,1.85V423c-4.65.18-5.51-1.89-4.87-11.84,5.56-2.31,5.56-2.31,6.44,1.87-1.49.89-5.9-1.84-4.53,3.06l6.79,2.34V392.33L515.45,394c7.76-6.56,8.32-9.93,2-15.37l1,6.37-3.77.93c-0.82-3.76-3.15-7.41.91-10.13l8.44,1.46,1.16-1.5c-6.64-2.59-5.7-6.7-3.22-11.15a2,2,0,0,0,.4-1.39c-4-6-.91-12.72-2-19-0.25-1.41.24-2.94,0.09-4.38-0.19-1.82-.69-3.6-1.06-5.43,3.2-7.43.35-15.86,1.78-23.76-2.8-.45-7.17-0.2-7.62-1.41-1.53-4.07-1.66-8.67-2.49-14.18,4.25,2.24,6.45,3.72,5,7.91-0.51,1.47,1,3.65,1.64,5.51,1.13-1.55,3.25-3.13,3.22-4.65-0.12-5.87-.93-11.73-1.54-18.13l-6,7.09-2.13-1.21c1.21-3.32,2.38-6.66,3.67-10,0.28-.72,1.15-1.19,1.55-1.89,1-1.67,2.47-3.42,2.44-5.11,0-1.08-2.54-2-3.7-3.19a47,47,0,0,1-3.34-4.31c3.27-4.55,5.23-11.41,1.89-16.07a3.39,3.39,0,0,1-.86-1.74c0.09-2.48.6-5,.47-7.42a43.44,43.44,0,0,0-1.33-6.6l1.16-1.21c1.45,0.79,3.67,1.24,4.19,2.43,1.7,3.92,1.8,7.83-2.13,9.54l6,10.1a14.07,14.07,0,0,0,.85-3.43c-0.09-5-.25-10.09-0.56-15.13-0.29-4.73-.71-9.45-1.36-14.14-0.1-.72-1.76-1.21-3.33-2.22l2,10.44c-4.52.88-6.21-.19-6.18-4.11,0.15-18.89.1-37.79,0.25-56.68,0-2.88.86-5.75,1.11-8.65,0.16-1.79.69-4.39-.25-5.31-0.86,14-1.38-13.08-.64-19,1.82-14.54-1.72-29.53,3.33-43.69,0.75-2.11.44-4.61,0.53-6.93,0.31-7.58,1.38.92,8.44-1.65,1.55-.56,3.11-1.09,5-1.73l-0.35-3.84c2.45-3,7.58,4,8.83-4.25,7.38,1.7,9.67,3.22,16.85,5.15,2.11,0.57,9.81-1.45,11.87-.5,7.08,3.29,19.2.51,26.42,3.49,1.17,0.48,4.9-.42,6.85-0.76,1.21,0.49,8.13,1.16,10,2.06,1.28,0.63,2.44-1.49,3.6-.65,1.89,1.38,2,2.6,3.53,4.28,2,2.14,1.17.44,2.24,3.09,1.58,3.93,4.92,10.19,5.11,14.37s-1.27,8.47-1.81,12.74c-0.39,3.12-.44,6.27-0.65,9.41-0.1,1.48,3.21,3.2,2.57,4.4-4.26,8-2.36,21.81-2.92,30.15-0.73,10.8.88,21.73,1,32.61,0.07,4.88-1.39,9.78-1.37,14.67q0.13,25.78.86,51.55c0.42,14.55-2.66,29.08-2.14,43.63,0.6,16.55.94,33.11,1.52,49.65,0.58,16.28-1.49,32.55-1.06,48.83,0.56,21.39-2.37,42.79-1.8,64.18,0.51,19.25,1.31,38.5,2.18,57.75,1.1,24.4-3.53,48.78-2.41,73.18,0.94,20.4,1.43,40.82,2.61,61.2,0.95,16.38,1.24,32.71,1.82,49.09,0.53,14.88-.85,29.83-0.62,44.73a153.79,153.79,0,0,0,2.88,25.6c1.16,6.24,3.69,12.23,5.65,18.42,18.06-7.8,31.13-22.62,50.42-26.33,5.38,5.16,5.31,7.64-.16,13.37-4.45,4.67-8.23,9.63-8.55,16.72-0.12,2.54-2.76,5-4.37,7.43-1,1.49-2.21,2.83-3.36,4.27-1.68-1-3.6-3.32-4.2,1.42-0.54,4.21-10.73,11.31-14.16,10.17,0.1,4.46-3.07,6-6.56,6.32-1.62.16-3.42-1.5-4.79-3.21a2,2,0,0,0-.89.11c-3.42,8.42-11.53,8.27-18.53,10.07-0.72.19-1.7-.89-2.62-1.13-1.16-.3-3-0.92-3.47-0.41-2.59,3-5.49,2-8.68,1.5-9.6-1.47-19.39-2-28.85-4-7.76-1.7-15.39-4.54-21.52-10.23-0.89-.82-2.91-0.29-4.08-1-2.2-1.26-5.43-1.88-4.81-5.62-4.64,1-3.39-3.68-5.17-5.31-8-7.33-9-17.49-10.78-27a300.26,300.26,0,0,1-4-35.86c-0.27-4.14,1.84-8.4,2.56-12.65a7,7,0,0,0-1-3.95c-2-3.82-1.34-8.9.13-9.86,0.15-4.27.26-7.54,0.37-10.8a3.76,3.76,0,0,0,0-1.48c-2.72-6.33-1.49-11.59,5.22-15.77h-6.59l3.32-17,4.56,0.73a5.05,5.05,0,0,0-.26-1.59c-6.35-2.27-7.62-4.2-7.26-11.15a18.73,18.73,0,0,0,.15-2.49c-0.77-9.14-1.64-18.27-2.31-27.42-0.11-1.54.66-3.13,0.89-4.72a12.1,12.1,0,0,0-.19-5.23c1.79-2.77,2.39-4.53-.22-8.35s-2.29-9.87-3.24-14.94Zm-1.87-126.35c0.5,7.26,1,13.6,1.35,19.95,0.15,2.6-.45,5.37.26,7.78,1.08,3.67,4.68,4.5,7.16,1.83l-4.64-2.37,1.58-.1c0-4.46.13-8.93,0-13.39C524.06,485,523.64,480.05,518.56,476.22Zm2.6-268.52-2.16-.3c-3,2.09-3,5.62-3.12,8.85,0,0.78,1.71,2.16,2.76,2.29,0.88,0.11,2.72-1.15,2.77-1.9A79.54,79.54,0,0,0,521.16,207.7Zm0.93-14.3c-3.37-3.78,3-9.06-2.16-10.87-1.85,3.08-3.63,5.56-4.79,8.29-0.35.82,0.75,3,1.69,3.41S519.55,193.87,522.1,193.4Zm-3.16,359.13,7.06,3c1.56-5.07-5.54-4.37-6.77-8.14Zm-0.87-40.3c3.59,5.7,3.59,5.7,6.88,3.22C522,510.26,521.9,510.19,518.06,512.22Z" transform="translate(-87.98 -38.28)"/><path class="cls-1" d="M1532.49,191c-8.94,1.59-17.63,3.54-26.43,4.59-7.06.85-33.24,2.66-40.38,2.83-1.1,0-2.84-.14-3.22-0.82-2.76-4.94-6.81-3.23-10.28-2.3l-7-6.09c2-7,8.72-4,13.22-5.74,1.87-.72,3.77-1.35,5.6-2.17,1.65-.74,3.13-2.17,4.83-2.44,7.52-1.21,34.11-4,41.65-5.17,7.34-1.11,14.68-2.25,21.93-3.82a6.34,6.34,0,0,0,3.92-3.92c1.46-5.76-1.69-11.68-.54-17.53,1.79-9.09,3.53-18.2,5.48-27.26,1.66-7.74.17-15.55,2.48-23.1s2.09-15.66,6.71-22.54c1.08-1.6-.39-4.73.34-6.78,2.52-7,4.94-14.16,8.54-20.62,1.8-3.23,29.76-5.78,33.3-7.41,8.93-4.09,14.94-3,22.36,3.25,3.56,3,5.47,8,8,12.2,2.23,3.68,3.81-1.13,6.57,2.07,2.06,2.38.47,10.82,3.41,11,8.15,0.47,11.71,5.56,13.44,13.77a144.72,144.72,0,0,1,2.26,16c0.84,8.77,3.69,16.83-.35,24.71-2.11,4.11-2.45,9.13-4,15.24,5.53-1.19,10.17-2.12,14.78-3.21,8.92-2.11,29.92-9,38.7-11.58s17.37-6,26.11-8.88c3.4-1.11,7-1.65,10.37-2.42,0.23,1.46,0,3,.66,3.63,3.86,3.76,3.43,6.81-1.92,9.52,2,3.37,1.74,5.51-2.74,7.1-10.06,3.57-20.71,6.63-29.4,12.46-5,3.33-23.57,6.27-27.05,11.59a0.57,0.57,0,0,1-.42.26c-7.29-.86-12.34,5.25-19.22,6.15-3.88.5-7.71,2.72-11.13,4.86-1.39.87-2.07,3.5-2.33,5.43-1.19,8.8.2,18-4.59,26.24-0.45.78,0.18,2.21,0.36,3.33,0.61,3.81,1.2,7.55-1.53,11a7,7,0,0,0-1.26,3.71c-0.66,9.82-1.16,19.65-1.82,29.47-0.13,1.94-1,3.82-1.14,5.76-0.21,3.14,0,6.31-.14,9.46-0.18,6.28-.41,12.56-0.64,18.84-0.11,2.9-.05,5.82-0.41,8.7-2,16.05-.33,32.18-0.7,48.33-0.21,9.2-2.29,17.29-2.9,26.05-1.06,15-1,31.08-2.17,46.06-0.93,11.78,2.49,24.55.42,36.18-1.46,45.72.58,36.29-1.1,87.66-1.84,21.48.12,43-1.26,64.47-0.81,12.75-.78,25.58-0.62,38.37,0.19,15.25,1.08,30.5,1.31,45.75,0.08,5.57-1.12,11.16-1.22,16.75-0.09,4.55,1,9.13.85,13.68-0.53,14.59-2.54,29.23-1.8,43.74,0.67,13.13-2,26.55,2.39,39.45,0.16,0.46.38,0.89,0.79,1.86,7.64-1.62,15.29-2.69,21.87-7.79,7.8-6,7.16-7.39,14.93-13.47a27,27,0,0,0,6.5-8.43c4-7.38-2.56-2.08,1.43-9.47,1.79-3.32,4.3-6.26,6.59-9.3,1.51-2,3.2-3.89,5.91-7.17l-0.74,5.8c7.76,4.05,1.08,10.57,1.77,16.35l3.75,0.85a8.51,8.51,0,0,1-.29,2.17c-1.13,2.53-3,4.88.56,7.32,0.73,0.5.5,3.68-.33,4.94-5.05,7.69-10.42,15.17-15.65,22.73-2.31,3.34-4.37,6.87-6.88,10-1.51,1.91,6.36-9.67,4.48-8.07-1.59,1.36-4.35,1.83-3.31,5.1,0.12,0.37-2.21,1.52-3.4,2.31q-9.11,6-18.23,12.08c-1.51,1-3.09,1.89-4.66,2.8-4.67,2.71-9.07,6.3-14.1,7.89-6.36,2-13.2,2.67-19.89,3.44-9.2,1.06-17.78-1.71-26.72-3.66s-13.11-8.58-19.45-13c-2.84-2-5-4.92-8-6.7A27.15,27.15,0,0,1,1538.24,801c-6.94-22.58-9.66-45.76-10.21-69.29-0.35-14.8-1-29.58-1.54-44.38-0.72-19.94-1.3-39.88-2.25-59.8-0.7-14.72-2.5-29.4-2.69-44.11-0.16-12.37-2.82-24.77-1.95-37.15,0.65-9.26-2.12-18.65-.36-27.72,1.91-9.83,2-19.67,2.93-29.47,1.44-16-1.22-31.93,0-47.91,0.91-12.21-3.82-24.48-2.63-36.67,1.16-11.83,1.28-23.57,2.67-35.38,0.74-6.28.62-12.66,1.25-19,1.18-11.87,2.92-23.7,3.88-35.59,0.94-11.71-2-23.49-1.19-35.21,1-13.93,2.39-27.83,3.42-41.76,1-13.21,1.69-26.44,2.52-39.67Z" transform="translate(-87.98 -38.28)"/><path class="cls-1" d="M1385.49,831.05c-4.31,7.09-11.65,7.06-18.32,7.85-3.75.45-7.73-.93-11.59-1.59-8.46-1.43-17.12-2.21-25.33-4.54-20.63-5.86-39.41-15.16-51.24-34.12-5.55-8.89-10-18.41-11.37-29.21-1-7.58-4-14.87-5.35-22.42-1.14-6.36-1.15-12.91-1.75-19.37a7.84,7.84,0,0,0-1.1-3.67c-1.87-2.65-2.88-5.05-.72-8.17,0.56-.81-0.62-2.71-0.72-4.14-0.69-9.47-2.1-19-1.73-28.4,0.35-8.94-1-17.83,0-26.73a3.5,3.5,0,0,1,.1-1.47c5.46-6.66,1.39-13.92,1.26-20.88-0.07-3.82.13-7.21,3.24-9.94,0.65-.57.73-2,0.76-3,0.25-10.56-1.25-21.24,4.39-31.21,1.38-2.44.21-6.33,0.21-10.26l4,2.77-2.21-6.79c1.4-5.88,2.66-11,3.86-16.22,1.4-6,2.8-12,4.11-18.09,0.88-4.09,1.77-8.19,2.35-12.34,0.51-3.6,1.6-6.45,4.72-6.67,0.49-2.84.17-5.69,1.43-7.35,3.21-4.25,2.48-10.34,7.34-14,1.59-1.18.46-5.49,1.61-7.85,5-10.25,11.1-20,15.48-30.51,5.21-12.47,14.19-22,22.09-32.52,5.63-7.47,7.42-11,15.81-13.82,1.1-.37,5.51-3.81,6-4.94,3-2,9-.12,12.07-2,2.66-1.59,5.41-.9,8.27-1.13,7.68-.62,14.54-2.32,21.19,3.24,6.21,5.18,6.21,5.18,22.34,10.94,3.2,1.14,4.4,1.86,5.12,4.85,0.54,2.24,2.67,4.09,3.27,6.33,2.38,8.75,9.4,16.74,2.42,26.94-3.34,4.87-3.34,11.9-5.71,17.6-2.53,6.11-6.14,11.76-9.09,17.71a7.87,7.87,0,0,0-.37,4.06c0.39,4-.69,6.72-3.57,10.06-5.15,6-9.11,13-12.89,20-3.48,6.43-6.09,13.34-9,20.07a27.7,27.7,0,0,0-1.48,4.62c-0.34,1.44-.12,3.09-0.73,4.37-3.34,7.1-6.88,14.11-10.28,21.18a8,8,0,0,0-1,3.66,37.3,37.3,0,0,1-3.51,19.42c-2.46,5.06-2.17,11.44-3.29,17.2-0.91,4.66-2.23,9.23-3.11,13.9s-1.54,9.38-2,14.09c-0.39,3.64.85,8.07-.81,10.84-3.83,6.4.23,12.89-1.59,19.32-1.29,4.55.17,9.86,0.23,14.83,0.11,9.87-.3,19.76.28,29.6,0.4,6.69,2.24,13.28,3.21,20,1.42,9.74,2.83,19.49,3.9,29.27,0.82,7.47,5.11,12.71,10.1,17.69,2.46,2.46,4.8,1,8,4.43,2.74-3.4,6-2,7.4-5.41,5.17-12.29,10.29-24.66,14.35-37.34,3.36-10.52,5.43-21.48,7.64-32.33,2.34-11.5,4-23.13,6.35-34.63,0.5-2.47,2.69-4.55,3.84-6.94,1.23-2.54,1.16-28.3,1-30.85-0.49-7.53-6.49-43-6.77-50.5-0.57-14.9-.56-29.83-0.42-44.75,0.05-5.79,3.79-10.16,7.27-10.61,0.78,2.46,1.37,4.82,2.28,7.06,0.84,2.06,2,3,4.65,1.85,2.15-.92,5-0.76,4.27,3.36-0.11.61,1.57,1.55,2.66,2.57-2.55,2.27-5.46,4.8,1.19,5.62,0.6,0.07.68,4.34,1.12,7.5L1444,570c0.88,6.33.28,12.94,2.84,17.93,4.49,8.73,7.56,68.12,7.5,76.67,0,4.65,0,9.31-.21,13.95a69.53,69.53,0,0,1-1.41,8.1c-3.84-2.81-5.71-2.38-5.68,2.33,0,2.1-1.05,4.22-1,6.31a68.46,68.46,0,0,0,1.11,8.38c0.44,3.05,3.94,6.36-.88,9-0.33.18,0.91,2.53,0.73,3.78-0.59,4.09-1.49,8.15-2.29,12.21-2.58,13.08-4.93,26.22-7.89,39.22-1.23,5.41-3.73,10.55-5.77,15.76q-4.74,12.11-9.67,24.15a18,18,0,0,1-1.74,2.39c-2.34,3.73-4.77,7.41-6.93,11.25-2.57,4.56-7.28,5.2-11.51,6.85-3.36,1.31-6.55,3.1-9.94,4.3-1.6.56-3.51,0.24-5.28,0.32Z" transform="translate(-87.98 -38.28)"/><path class="cls-1" d="M1901,707.84c1.13,0.7,2.54,1.15,3.33,2.14,3.27,4.05,6.5,8.16,9.39,12.51,0.65,1,.19,3.14-0.32,4.53-2.69,7.33-5.67,14.55-8.33,21.89-1.21,3.33-1.41,7.12-3,10.23-3.92,7.9-8.33,15.53-12.54,23.28a2.44,2.44,0,0,0-.54,1.41c3,6.09-2.67,9.22-4.63,14l2.09,1.31c-1,6.09-1.56,11.72-3.06,17.06-0.63,2.26-3.11,4.17-5.1,5.76a37.09,37.09,0,0,1-8.23,5.26,22.87,22.87,0,0,1-8.79,2c-3.79,0-5,1.34-3.38,5.75-3.76-1.81-6.95-2.75-6.39,2.76-6.92.69-13.39,1.48-19.89,1.93a38.29,38.29,0,0,1-8.19-.59c-5.26-.78-10.54-1.55-15.71-2.77-2.27-.54-4.29-2.18-6.42-3.31-0.86-.46-2-1.55-2.55-1.27-5.66,3-8.88-2-12.85-4.14-5.22-2.78-10.29-5.91-15.22-9.21-2.58-1.72-4.61-4.31-7.11-6.19s-5-3.84-7.76-4.72c-5.59-1.77-6.22-7.34-9-11.27a36.58,36.58,0,0,1-2-3.81L1749,793c-1.92-1.48-2.68-2.47-3.64-2.73-3-.83-4.2-2.39-3-5.65a3.49,3.49,0,0,0-.27-2.92c-9.66-9.89-10.86-23.21-13.65-35.9-1.25-5.68-3.15-11.22-4.23-16.93-1.35-7.16-2.39-14.41-3.12-21.67-1-9.67-1.76-19.37-2.2-29.08-0.42-9.22-.37-18.47-0.38-27.71,0-12.5-.13-25,0.27-37.49,0.14-4.34,1.89-8.6,2.56-13,2.48-16.17,4.71-32.38,7.22-48.55,1.88-12.12,3.52-24.32,6.24-36.24s6.35-23.38,10-34.9c3.52-11,7.52-21.8,11.55-32.6a56.41,56.41,0,0,1,5.93-12.21c1.35-2,4.42-2.69,7.49-4.41-1.43-.24-2.34-0.13-2.87-0.54a4.28,4.28,0,0,1-1.35-2.11c1.62-1.78,3.21-3.76,5.22-4.93a20.43,20.43,0,0,1,6.49-1.91c6.08-1.15,12.21-2,18.27-3.25,5.11-1.05,11-1.2,15-4.09,4.93-3.6,13.19-4.48,18.47-5.24,10.54-1.52,21.21-2.19,31.84-2.9,3.1-.21,6.26.68,9.4,1,15.26,1.39,27.34,8.29,35.3,22.09s7.77,28.79,5.84,44c-0.45,3.58-.84,7.17-1.26,10.75a59.91,59.91,0,0,1-11.4,28.59c-5.25,7.26-9.17,15.6-14.67,22.63-8.06,10.3-15.61,21.2-26.75,28.55a160,160,0,0,0-19.55,14.71c-2.78,2.52-4.55,6.87-5.54,10.72-2.15,8.41-7.43,16.87-9.21,25.39-0.41,2-.62,3.79-1,5.76a53.71,53.71,0,0,0-1.58,10c-0.14,5.37.38,10.76,0.43,16.14,0.11,10.55.07,21.09,0.13,31.64q0,6.46.24,12.93c0.3,9.86.32,19.75,1.08,29.58,0.44,5.75,1.92,11.43,3.24,17.07,2.51,10.73,4.9,21.51,8,32,1.47,5,4.37,9.51,7.07,13.95,0.53,0.86,4,1.12,4.7.33,9.19-11,18.38-22,27-33.45,6.36-8.42,11.91-17.5,17.82-26.28a26.44,26.44,0,0,0,1.62-2.6c2.55-4.95,5.06-9.92,7.59-14.88Zm-41.27-271.27c1.17,1.64-.81,3.31.56,4.75a56,56,0,0,1-4.07,17.28c-2.25,5.45-3.17,16.71-5.26,22.23-2.2,5.82-1.75,11.43-3.76,17.33-4.35,12.77-7.23,18.31-11.37,31.15-1.22,3.78,3,6.43,2.41,10.43l1.61,0.45c2.3-1.75,5.05-3.12,6.79-5.34a124.53,124.53,0,0,0,8.22-12.65c2.14-3.57,3.29-9.37,6.2-10.51,5.75-2.24,5.88-6.34,6.5-10.94a8.69,8.69,0,0,1,1-1.78c2.31-5.48,6.29-10.9,6.54-16.49,0.5-11.36,3.65-23.18-2.24-34.18C1869.91,442.89,1868.07,436.54,1859.69,436.56Zm-133,255.17,0.7,0.34c0.58-23.64.34-47.34,2-70.91,1.64-23.77,5.11-47.41,7.87-71.89-4.27,3.31-6.74,6.24-4.84,11a3.73,3.73,0,0,1-.39,2c-0.92,3.15-1.81,6.31-2.82,9.42-2.7,8.28-.17,17.63-5,25.48a2.79,2.79,0,0,0-.26,1.9c2.24,9.28,2.32,18.48-.69,27.64a7,7,0,0,0-.13,2.91c0.35,3,1.23,5.93,1.13,8.86-0.32,9.88-1.65,19.78-1.3,29.61C1723.27,676,1725.42,683.85,1726.74,691.74ZM1733.85,541l1.35,0.64c1.25-1.5,3.3-2.85,3.59-4.53,0.78-4.5.7-9.15,1.2-13.72,0.11-1,1.21-2,1.8-3s1.44-1.94,1.47-2.93c0.42-13.53,3.42-26.22,11.25-37.81l-3.71-3.2C1742,497.54,1738,519.27,1733.85,541Zm-4.18,180.27c2.53-6.31,1.66-11.79-2-13Z" transform="translate(-87.98 -38.28)"/><path class="cls-1" d="M1128.74,731.26c1.61-9.57,5-17.19,6.9-26.71s3.42-19.37,6.61-28.55c3.55-10.22,5.82-20.83,10-30.82q3.82-9,7.14-18.28c0.92-2.55-.08-6.43.81-9,2.48-7.22,4.79-13.54,7.3-19.52,0.77-1.84.79-2.16,1.24-2.64,0.69-3.79,4-6.62,4.75-9.28,1.62-5.39.92-11,3.45-16,5.46-10.67,6.63-22.54,11.8-33.26,1.6-3.32,3.56-6.2,3.78-10.24,0.12-2.06,6.32-3.95,8.12-5.91l-1.06-1.1c-0.81.24-4.62,0.48-5.91,0.86,1.35-5.09,5.4-9.84,7-14.41,0.45-1.33,2.37-2.19,3.68-3.17,0.72-.53,2.26-0.85,2.27-1.3,0.14-4.08.53-8.27-.18-12.24-0.48-2.69,0-3.4,2.35-4.28,2.14-.8,4.95-4.47,6.31-5.36-2.5-2.4-6.63-2.23-6.41-3.43,0.45-2.37,6.76-6.38,8.29-8.54l1.81,0.71c0.62,2.35,6.93,4.76,6.72,7-0.73,7.79-7,15.53-8.06,23.29-0.11.81-.58,2-0.22,2.39,3.84,4.71-2.81,11.17-4.32,15.7-0.26.78-.85,1.66-0.68,2.35,2.81,11.34-3.18,20.8-6.48,30.83-2.32,7-4.51,14.13-6.94,21.14-5,14.35-8.33,28.56-13,43-3.74,11.5-4.71,23.24-8.1,34.86-2.46,8.41,0,16.79-2.57,25.18-0.14.48-2.34,0.95-2.4,1.43-1.67,14.17-5.58,28.31-6.89,42.51-0.76,8.21-4.49,16.72-6,24.73-2.59,13.52-6.68,26.75-10.13,40.11-0.41,1.6-.74,3.21-1.07,4.83-1.92,9.44-3.55,19.08-8.81,27.32-2.72,4.26-6.86,7.62-10.39,11.35-1.71,1.8-3.82,3.31-5.21,5.32-2.85,4.11-2.66,4.12-7.17,1.84-0.72-.37-2.13.28-3.08,0.76-1.86.93-3.5,2.58-5.44,3-11.69,2.69-23,.74-33.46-4.57-6-3-12.12-6.58-12.74-14.61a1.51,1.51,0,0,0-.84-1.13c-4.21-.47-4.75-3.62-5.79-6.93-1.31-4.13-3.69-7.92-5.28-12-3.07-7.87-7.83-15.7-8.39-23.78-1-13.94-8.91-25.42-11.07-38.77-0.69-4.28-3.22-8.24-4.55-12.46-4.47-14.2-8.55-28.52-13.23-42.64-2.5-7.55-6.14-14.72-8.82-22.22-1.38-3.88-1.79-8.1-2.73-12.6-0.8-1-2.67-2.46-3.35-4.36a105.73,105.73,0,0,1-3.5-12.9,33.42,33.42,0,0,1-.31-6c0-.61.28-1.39,0-1.8-6.11-8.84-7-19.28-9.24-29.34a15.87,15.87,0,0,0-1-3.33c-1.86-4,.44-4.49,3.45-4.61l3.2,7.75c3.72-6.64-.34-10.64-2.37-15L986,579.92l-3-3.36-0.86,2.22-1.23-.4c-0.56-2.67-1.05-5.36-1.71-8-1.33-5.37-1.87-10.89-4.52-16-0.94-1.82.52-4.89,0.89-7.41-4.5-1.84-7.18-10.39-4.59-15.21,1.08-2,2.59-3.82,3.61-5.87a4.52,4.52,0,0,0,0-3.13,2.23,2.23,0,0,0-2-.78,5,5,0,0,0-1.47,2.35c-0.54,1.52-.88,3.11-1.3,4.68l-1.49-.06c-2.26-8.7-5.29-17.3-6.57-26.14s-7.54-16.79-3.7-26.2c-5.61-7.79-3.85-17.2-5.5-25.84s-3.26-17.71-4.33-26.58c-0.47,0,.05-0.06-0.42-0.1l-1.08,8.84-1.2-.07c0.46-5.13-.21-10.27.42-15.38,0.43-3.44-.37-6.47.91-10.43,1.52-4.71,3.78-4.33,7.21-4.49,2.34-.1,4.6,3.38,7,3.15,4-.38,8.11-4.89,12-4.18,9.37,1.72,18.62.73,27.92,0.74,7.92,0,15.35-1,22.22,3.78,0.37,0.25,1-1.85,1.46-1.76,3,0.54,8.34,1,9.69,2.83,3.21,4.24,4.72,14.34,6.22,19.47,3.09,10.52,5.48,21.25,7.88,32,1.11,4.94,1.31,10.07,2.37,15,0.88,4.08,3.1,7.95,3.53,12,0.74,7.06,3.33,13.69,4.47,20.4,1,5.61,2.46,11,3.75,16.5,1.46,6.2,2.86,12.41,4.46,18.58,0.85,3.3,2.07,6.5,3.11,9.75,2,6.4,4.12,12.8,6.11,19.22,0.92,3,1.64,6,2.52,9,2,6.77,4.2,13.49,6,20.31,0.72,2.72.22,5.76,0.9,8.49,1.36,5.44,3.13,10.77,4.77,16.13,3,9.66,5.78,19.36,9,28.93,1.78,5.28,4.4,10.26,6.37,15.48,2.78,7.38,5.26,14.87,7.93,22.29,3.28,9.09,6.65,18.14,9.94,27.23,1.35,3.74,2.53,7.54,3.9,11.28,0.58,1.57,1.44,0,2.17,1.56C1130,730.58,1128.39,731.42,1128.74,731.26ZM1004.68,631l-1.32-5.36-7,6.66Z" transform="translate(-87.98 -38.28)"/><path class="cls-1" d="M1993.77,464c-0.9-2.92-2.63-5.88-2.58-8.8,0.15-8.75,1.55-17.05-2.09-25-1.57-3.41.69-14.41,4.3-14.65a26,26,0,0,1,9.4,1.22c8.09,2.58,15.91-3.46,23.9-.58,2.26,0.82,13.42.73,16.5,2.05,7.85-2.86,7.85-2.86,12.11-.13,0.69,0.44,1.49-.66,2-0.81,10.16-2.64,18.82-.93,27.82,1.65,4.17,1.19-.34,25.49,1,30.2,2.07,7.08,1.74,14.88,2.32,22.38,0.42,5.43.88,10.88,0.89,16.32,0,6.55-.47,13.09-0.69,19.64-0.14,4.29-.19,8.59-0.3,12.88q-0.41,15.88-.83,31.76c0,0.63,0,1.25,0,2.83,1.81-1.2,3.51-1.75,4.25-2.92,6.21-9.73,11.77-19.91,18.49-29.26,5-7,11.57-12.91,17.32-19.41s11.3-13.56,17.36-19.95c4.21-4.44,9.42-7.92,13.71-12.29,5.64-5.74,12.21-10.56,18.39-15.38,9.11-7.1,18.55-15.19,31.44-15.61,4.35-.14,7.22.38,7.1,5.58,0,1,.94,2,1.53,3.19l-36.87,28.66,1.13,0.54a20.63,20.63,0,0,1-1.82,4.32c-1.09,1.54-2.71,2.69-4,4.13-1.49,1.73-2.6,3.84-4.26,5.35-5.63,5.09-10.86,10.33-14.61,17.15-2.29,4.17-6.44,7.27-9.24,11.21a257,257,0,0,0-24.7,42c-4.69,10.27-10,20.24-13.53,31-3.22,9.81-6.29,19.66-9.52,29.47-3.91,11.89-8.21,23.66-11.71,35.66-1.35,4.63-1.26,9.77-1.31,14.68-0.15,17.08,0,34.17-.12,51.26,0,7.22-.49,14.44-0.61,21.66-0.08,4.76.22,9.52,0.16,14.27-0.18,13.61-.23,27.23-0.82,40.83-0.25,5.87-1.12,17.83-2.78,23.45-0.61,2.07.27,5-2,5.13-3.35.16-3.33,3.56-4.56,6.28-1.66,3.69-9.19,3.59-14.65,2.55-3.14-.6,0,0-8.61.18-6.5,3.38-8.72-1.52-20.44.73-2.39-1.72-6.87.07-9.91-.67-6.2-1.5-19.47-3.26-25.76-4.12-7.63-1-2.51-13-5.6-18.48-4.56-8-3.41-17.19-2.69-25.75,0.38-4.47,1.28-8.65.43-13.25-0.38-2.09,1.57-4.61,2.1-6-0.86-3.46-2.26-6.53-2.24-9.6,0-5.68.88-11.36,1.38-17a1.47,1.47,0,0,0-.08-1c-3.68-3.62-1.19-5.73,2.63-7.83-6.3-2.85-2.9-7.16-2.57-11.1,0.18-2.13-.42-4.32-0.46-6.49,0-1.78.21-3.57,0.34-5.35,0.16-2,.46-4.08.49-6.13,0.26-17.7.58-35.41,0.67-53.11,0-8.14-.74-16.28-0.53-24.41,0.33-12.66,2.52-25.42,1.47-37.92-1.17-14,.29-27.72,0-41.57-0.21-10,.5-20.07-1.09-29.81-1.3-7.95,1.36-15.37.43-23.21-1.12-9.53-.55-19.28-0.33-28.93C1991.16,466.19,1993.21,464.71,1993.77,464Z" transform="translate(-87.98 -38.28)"/><path class="cls-1" d="M2232.39,791.49c2.07-.71,4.5-2.11,4.93-1.6,5,5.85,7,3.81,11.78,2.37,6.15-1.85,12-6.22,18.13-6.38,12.05-.3,18-9,25.09-16.67,12-13,14.86-29.06,14.4-46.27-0.18-6.61-1.38-13.21-1.44-19.82-0.13-12.86-11-24.73-14-36.93-2.12-8.76-12.36-17.08-14.64-25.81s-3.23-9.27-11.79-19.75c-1.14-5.08-7.53-16.35-8.64-21.44-2.88-13.15-10.69-26.22-13.54-39.37-2.57-11.89-5.35-23.74-7.61-35.69-1.07-5.66-.11-11.55-0.67-17.32-0.42-4.36,2.4-8.85,2.74-13.14,0.58-7.45-4.6-12.41.66-14.93,7.53-23,13.36-32.88,17.9-38.14,6.83-7.9,17.71-10,25.69-16.19,8.82-6.87,20.09-12.15,33.17-8.88,6.48-.7,28.61,4.11,35.09,4.25,0,0,9.75,4.42,15.18,9.23,4.25,6.74,6.8,3.32,14,14.55,4.4,6.9,4,1.33,5.1,14.38,1,5.36,1.57,17.41-2,22.25a78.58,78.58,0,0,0-10.13,10.43c-2.46,3.08-8.8-4.13-10.8-6.84s-6.73-6.41-8.32-9.58c-3.12-6.23-13.44-11.86-24.17-15.18-2.65-5.9-17,2.42-19.79,5.66-2,2.32-2.6,6.09-3.51,9.32-1.54,5.47-2.83,11-4.2,16.42,2.85,1.8,3.64,2.91,5.23,6.08a49.84,49.84,0,0,0,3.12,5.94c1.72,2.29,1.3,8.64,3.53,10,6.27,13.78,4.27,13.82,14.4,20.79,1.67,6.52,10.44,12.6,12.27,19.09,1.08,3.81,5.35,7.81,5.89,11.78,8.45,16.07,14.71,19.73,19.39,31.82,1.89,4.89,10.72,16.48,12,21.63,2.09,8.12,9.27,15.54,12.68,23a107.54,107.54,0,0,1,6.08,16.77c1.76,6.58,4.45,12.88,6.42,19.41a110.72,110.72,0,0,1,2.33,11.43c0.64,3.42,1.65,6.84,1.74,10.28,0.22,9-.05,18.07,0,27.11,0,2.6,1,5.23.82,7.78q-1,13-2.5,25.9a56.52,56.52,0,0,1-9.33,25.53,112.07,112.07,0,0,1-8,10.46c-6.52,7.51-12.94,15.18-19.93,22.18-5.54,5.54-8.18,12.28-17.31,10.37-2.88-.6-9.18,5.39-12.42,5.85q-20.2,2.81-40.46,5.08a85.2,85.2,0,0,1-13.46.43c-4.76-.22-9.48-1.08-14.23-1.57-2.13-.22-4.48-0.87-6.38-0.21-9,3.1-17.76-3.68-26.55-5.4-5.82-1.14-11.77-1.49-17.62-2.48-2.83-.48,2.78.85,0,0-3.95-1.21-7.5-11.07-11.27-12.73-4.41-1.94-5.88-6.81-8.48-10.46-2.27-3.19-2.45-9.35-1.39-13.58-1-12.49-1-4.59-1.53-19.4,2.82-6.46,3.87-6,6.63-12.44,2.29-5.39,6.91-4.09,10-3.61a7.58,7.58,0,0,1,6.06,6.21c-0.66-8.53-1.11,20.56,4.33,13.24-3.4,4.57,3.79,7.75,7,12C2230.86,789.88,2231.92,790.95,2232.39,791.49Z" transform="translate(-87.98 -38.28)"/><path class="cls-1" d="M324.56,460.34c1.44-.34,9.12-0.82,10.83-1.13,1.92-.35,3.86-0.59,5.79-0.8,1-.11,2.51.35,2.85-0.13,3.3-4.54,7.11-5.34,10.33-4.44,5.51,1.54,10.77,2,16.14,4.08a7.35,7.35,0,0,0,1.44.39q6.74,1.1,13.48,2.18a2.62,2.62,0,0,0,1.43.16c5.51-4.6,9.26.75,13.68,2.34,2.8,1,5.81,1.52,8.45,2.81,1.66,0.81,3.87,2.55,4,4.06,0.52,5.29.16,16.67,0.36,22,0.08,2.23.87,4.43,1.11,6.67,0.36,3.25-.54,6.53-0.21,9.78,0.75,7.39-.28,14.76.28,22.17,0.24,3.24.87,6.56,0.47,9.8-0.7,5.73-2,11.42-2.35,17.16-0.28,4.57,3.21,9.29-.11,13.38a3.3,3.3,0,0,0-.49,1.88c-0.14,5.37-.28,10.73-0.33,16.1-0.1,9.71-.18,19.41-0.19,29.12,0,8.44,1.06,17-.21,25.28-0.88,5.7.54,11.07,0,16.36-1.11,10.13-.7,20.25-0.26,30.25,0.46,10.44-1.72,20.81.29,31.31,1,5.39-.83,11.27-0.35,16.84,0.88,10.15-.46,20.23.87,30.33,0.43,3.28,1.66,6.59,2.35,9.81a64.78,64.78,0,0,0,2.59,7.68c0.11,0.3,2.53.56,2.52,0.83-0.35,8.33,6.6,7.07,11.32,8.39,6.61,1.85,12,5.31,15.23,11.3,2,3.64-.72,9.2-5.23,12.36-1.9,1.33-4.16,2.21-5.86,3.74s-2.31,3.83-4,5c-1.32,1-2.42,6.35-5.42,1.19a5.76,5.76,0,0,0-3.56,1.32c-3.18,4-6.83,6.2-12.18,5.73-1.46-.13-3.1,2.51-4.64,2.49-14.08-.17-28.24,2.9-42.23-1.92-8.48-2.92-17.73-3.71-26-7-5.51-2.15-11.35-6-14.66-10.77-9.53-13.7-12.34-29.9-14-46.2-1.46-14.61-1-29.23-1.64-43.89-0.71-15.38-1.7-30.81-1.6-46.22,0.15-20.57-1.17-41.13-1-61.7,0.11-12.73,0-25.51.75-38.19,0.83-14.31-.75-28.52.69-42.8,1.17-11.57-1.16-23.19-.12-34.77,0.29-3.22,1.07-6.4,1.61-9.6,1.21-7.16,1.37-14.75,4.05-21.31,1.26-3.07,4.53-8,9.66-9C322,464.51,323.08,462.06,324.56,460.34Z" transform="translate(-87.98 -38.28)"/><path class="cls-1" d="M311.25,336.05c0.88-9.78,5.74-18.16,13.52-25,11.22-9.89,24.76-16,37.94-22.52,2.85-1.42,6.41-1.54,9.68-1.95,5.36-.68,10.88-2.05,16.11-1.39a79.31,79.31,0,0,1,19.72,5.47c2.62,1.06,4.26,4.7,6.17,7.29,8.42,11.39,6.29,21.51-1.63,32.83-6.67,9.52-15.56,15.82-24.31,22.55-5.86,4.5-11.36,9.81-19.12,11.41-6.72,1.38-13.32,3.3-20,4.94a5.26,5.26,0,0,1-2.68.28c-8.66-3-18.3-4.44-24.49-11.86-4.17-5-7-11.1-10.22-16.84C311.26,340,311.52,338.31,311.25,336.05Z" transform="translate(-87.98 -38.28)"/></svg>
