<?xml version="1.0" encoding="utf-8"?>
<!-- Generator: Adobe Illustrator 19.2.1, SVG Export Plug-In . SVG Version: 6.00 Build 0)  -->
<svg version="1.1" id="Layer_1" xmlns="http://www.w3.org/2000/svg" xmlns:xlink="http://www.w3.org/1999/xlink" x="0px" y="0px"
	 width="110.4px" height="110.4px" viewBox="0 0 110.4 110.4" style="enable-background:new 0 0 110.4 110.4;" xml:space="preserve"
	>
<style type="text/css">
	.st0{fill:#3A3A3A;}
</style>
<path class="st0" d="M55.2,107.4C26.4,107.4,3,84,3,55.2S26.4,3,55.2,3s52.2,23.4,52.2,52.2S84,107.4,55.2,107.4z M55.2,10.5
	c-24.6,0-44.6,20-44.6,44.6s20,44.6,44.6,44.6s44.6-20,44.6-44.6S79.8,10.5,55.2,10.5z"/>
<g>
	<rect x="51.4" y="35" class="st0" width="7.5" height="40.4"/>

		<rect x="51.4" y="35" transform="matrix(4.483151e-11 1 -1 4.483151e-11 110.3652 -8.738891e-05)" class="st0" width="7.5" height="40.4"/>
</g>
</svg>
